<svg width="9704" height="1097" viewBox="0 0 9704 1097" fill="none" xmlns="http://www.w3.org/2000/svg">
<path d="M63 871V241H557.1V378.7H239.4V733.3H568.8V871H63ZM226.8 618.1V484.9H519.3V618.1H226.8ZM982.688 883.6C932.888 883.6 886.688 875.8 844.088 860.2C801.488 844 764.588 821.2 733.388 791.8C702.788 762.4 678.788 727.9 661.388 688.3C643.988 648.1 635.288 604 635.288 556C635.288 508 643.988 464.2 661.388 424.6C678.788 384.4 703.088 349.6 734.288 320.2C765.488 290.8 802.388 268.3 844.988 252.7C888.188 236.5 935.288 228.4 986.288 228.4C1045.69 228.4 1098.79 238.3 1145.59 258.1C1192.39 277.9 1231.09 306.4 1261.69 343.6L1148.29 446.2C1126.69 422.8 1103.29 405.4 1078.09 394C1053.49 382 1025.89 376 995.288 376C968.288 376 943.688 380.2 921.488 388.6C899.288 397 880.388 409.3 864.788 425.5C849.188 441.1 836.888 460 827.888 482.2C819.488 503.8 815.288 528.4 815.288 556C815.288 582.4 819.488 606.7 827.888 628.9C836.888 651.1 849.188 670.3 864.788 686.5C880.388 702.1 898.988 714.4 920.588 723.4C942.788 731.8 967.088 736 993.488 736C1019.89 736 1045.69 731.8 1070.89 723.4C1096.09 714.4 1121.59 699.4 1147.39 678.4L1247.29 803.5C1211.29 829.3 1169.59 849.1 1122.19 862.9C1074.79 876.7 1028.29 883.6 982.688 883.6ZM1247.29 803.5L1089.79 780.1V542.5H1247.29V803.5ZM1581.67 883.6C1530.07 883.6 1480.27 877.3 1432.27 864.7C1384.87 851.5 1346.17 834.7 1316.17 814.3L1374.67 682.9C1402.87 700.9 1435.27 715.9 1471.87 727.9C1509.07 739.3 1545.97 745 1582.57 745C1607.17 745 1626.97 742.9 1641.97 738.7C1656.97 733.9 1667.77 727.9 1674.37 720.7C1681.57 712.9 1685.17 703.9 1685.17 693.7C1685.17 679.3 1678.57 667.9 1665.37 659.5C1652.17 651.1 1635.07 644.2 1614.07 638.8C1593.07 633.4 1569.67 628 1543.87 622.6C1518.67 617.2 1493.17 610.3 1467.37 601.9C1442.17 593.5 1419.07 582.7 1398.07 569.5C1377.07 555.7 1359.97 538 1346.77 516.4C1333.57 494.2 1326.97 466.3 1326.97 432.7C1326.97 394.9 1337.17 360.7 1357.57 330.1C1378.57 299.5 1409.77 274.9 1451.17 256.3C1492.57 237.7 1544.17 228.4 1605.97 228.4C1647.37 228.4 1687.87 233.2 1727.47 242.8C1767.67 251.8 1803.37 265.3 1834.57 283.3L1779.67 415.6C1749.67 399.4 1719.97 387.4 1690.57 379.6C1661.17 371.2 1632.67 367 1605.07 367C1580.47 367 1560.67 369.7 1545.67 375.1C1530.67 379.9 1519.87 386.5 1513.27 394.9C1506.67 403.3 1503.37 412.9 1503.37 423.7C1503.37 437.5 1509.67 448.6 1522.27 457C1535.47 464.8 1552.57 471.4 1573.57 476.8C1595.17 481.6 1618.57 486.7 1643.77 492.1C1669.57 497.5 1695.07 504.4 1720.27 512.8C1746.07 520.6 1769.47 531.4 1790.47 545.2C1811.47 558.4 1828.27 576.1 1840.87 598.3C1854.07 619.9 1860.67 647.2 1860.67 680.2C1860.67 716.8 1850.17 750.7 1829.17 781.9C1808.77 812.5 1777.87 837.1 1736.47 855.7C1695.67 874.3 1644.07 883.6 1581.67 883.6ZM1942.98 871V241H2230.98C2288.58 241 2338.08 250.3 2379.48 268.9C2421.48 287.5 2453.88 314.5 2476.68 349.9C2499.48 384.7 2510.88 426.1 2510.88 474.1C2510.88 521.5 2499.48 562.6 2476.68 597.4C2453.88 632.2 2421.48 659.2 2379.48 678.4C2338.08 697 2288.58 706.3 2230.98 706.3H2041.98L2121.18 628.9V871H1942.98ZM2121.18 647.8L2041.98 565.9H2220.18C2257.38 565.9 2284.98 557.8 2302.98 541.6C2321.58 525.4 2330.88 502.9 2330.88 474.1C2330.88 444.7 2321.58 421.9 2302.98 405.7C2284.98 389.5 2257.38 381.4 2220.18 381.4H2041.98L2121.18 299.5V647.8ZM2597.77 871V241H3091.87V378.7H2774.17V733.3H3103.57V871H2597.77ZM2761.57 618.1V484.9H3054.07V618.1H2761.57ZM3516.55 883.6C3466.75 883.6 3420.55 875.8 3377.95 860.2C3335.95 844 3299.35 821.2 3268.15 791.8C3237.55 762.4 3213.55 727.9 3196.15 688.3C3178.75 648.1 3170.05 604 3170.05 556C3170.05 508 3178.75 464.2 3196.15 424.6C3213.55 384.4 3237.55 349.6 3268.15 320.2C3299.35 290.8 3335.95 268.3 3377.95 252.7C3420.55 236.5 3466.75 228.4 3516.55 228.4C3574.75 228.4 3626.65 238.6 3672.25 259C3718.45 279.4 3756.85 308.8 3787.45 347.2L3674.05 449.8C3653.65 425.8 3631.15 407.5 3606.55 394.9C3582.55 382.3 3555.55 376 3525.55 376C3499.75 376 3476.05 380.2 3454.45 388.6C3432.85 397 3414.25 409.3 3398.65 425.5C3383.65 441.1 3371.65 460 3362.65 482.2C3354.25 504.4 3350.05 529 3350.05 556C3350.05 583 3354.25 607.6 3362.65 629.8C3371.65 652 3383.65 671.2 3398.65 687.4C3414.25 703 3432.85 715 3454.45 723.4C3476.05 731.8 3499.75 736 3525.55 736C3555.55 736 3582.55 729.7 3606.55 717.1C3631.15 704.5 3653.65 686.2 3674.05 662.2L3787.45 764.8C3756.85 802.6 3718.45 832 3672.25 853C3626.65 873.4 3574.75 883.6 3516.55 883.6ZM4343.19 883.6C4291.59 883.6 4241.79 877.3 4193.79 864.7C4146.39 851.5 4107.69 834.7 4077.69 814.3L4136.19 682.9C4164.39 700.9 4196.79 715.9 4233.39 727.9C4270.59 739.3 4307.49 745 4344.09 745C4368.69 745 4388.49 742.9 4403.49 738.7C4418.49 733.9 4429.29 727.9 4435.89 720.7C4443.09 712.9 4446.69 703.9 4446.69 693.7C4446.69 679.3 4440.09 667.9 4426.89 659.5C4413.69 651.1 4396.59 644.2 4375.59 638.8C4354.59 633.4 4331.19 628 4305.39 622.6C4280.19 617.2 4254.69 610.3 4228.89 601.9C4203.69 593.5 4180.59 582.7 4159.59 569.5C4138.59 555.7 4121.49 538 4108.29 516.4C4095.09 494.2 4088.49 466.3 4088.49 432.7C4088.49 394.9 4098.69 360.7 4119.09 330.1C4140.09 299.5 4171.29 274.9 4212.69 256.3C4254.09 237.7 4305.69 228.4 4367.49 228.4C4408.89 228.4 4449.39 233.2 4488.99 242.8C4529.19 251.8 4564.89 265.3 4596.09 283.3L4541.19 415.6C4511.19 399.4 4481.49 387.4 4452.09 379.6C4422.69 371.2 4394.19 367 4366.59 367C4341.99 367 4322.19 369.7 4307.19 375.1C4292.19 379.9 4281.39 386.5 4274.79 394.9C4268.19 403.3 4264.89 412.9 4264.89 423.7C4264.89 437.5 4271.19 448.6 4283.79 457C4296.99 464.8 4314.09 471.4 4335.09 476.8C4356.69 481.6 4380.09 486.7 4405.29 492.1C4431.09 497.5 4456.59 504.4 4481.79 512.8C4507.59 520.6 4530.99 531.4 4551.99 545.2C4572.99 558.4 4589.79 576.1 4602.39 598.3C4615.59 619.9 4622.19 647.2 4622.19 680.2C4622.19 716.8 4611.69 750.7 4590.69 781.9C4570.29 812.5 4539.39 837.1 4497.99 855.7C4457.19 874.3 4405.59 883.6 4343.19 883.6ZM4780.1 1053.7C4754.3 1053.7 4728.2 1049.5 4701.8 1041.1C4676 1033.3 4655 1022.8 4638.8 1009.6L4698.2 889.9C4708.4 898.9 4720.1 905.8 4733.3 910.6C4747.1 916 4760.6 918.7 4773.8 918.7C4792.4 918.7 4807.1 914.5 4817.9 906.1C4828.7 897.7 4838 884.5 4845.8 866.5L4868.3 809.8L4881.8 792.7L5047.4 383.2H5210.3L4999.7 890.8C4982.9 932.8 4963.4 965.5 4941.2 988.9C4919.6 1012.9 4895.3 1029.7 4868.3 1039.3C4841.9 1048.9 4812.5 1053.7 4780.1 1053.7ZM4846.7 891.7L4631.6 383.2H4807.1L4965.5 777.4L4846.7 891.7ZM5254.51 871V383.2H5417.41V519.1L5385.01 480.4C5403.01 445.6 5427.61 419.5 5458.81 402.1C5490.01 384.1 5524.81 375.1 5563.21 375.1C5607.01 375.1 5645.41 386.5 5678.41 409.3C5712.01 431.5 5734.51 466.3 5745.91 513.7L5690.11 502C5707.51 462.4 5733.61 431.5 5768.41 409.3C5803.81 386.5 5844.31 375.1 5889.91 375.1C5927.71 375.1 5961.31 382.9 5990.71 398.5C6020.71 413.5 6044.11 436.9 6060.91 468.7C6078.31 500.5 6087.01 541.6 6087.01 592V871H5916.01V619.9C5916.01 585.1 5909.41 559.9 5896.21 544.3C5883.01 528.1 5865.01 520 5842.21 520C5826.01 520 5811.31 523.9 5798.11 531.7C5784.91 539.5 5774.71 551.5 5767.51 567.7C5760.31 583.3 5756.71 603.7 5756.71 628.9V871H5585.71V619.9C5585.71 585.1 5579.11 559.9 5565.91 544.3C5553.31 528.1 5535.31 520 5511.91 520C5495.11 520 5480.11 523.9 5466.91 531.7C5454.31 539.5 5444.11 551.5 5436.31 567.7C5429.11 583.3 5425.51 603.7 5425.51 628.9V871H5254.51ZM6501.84 879.1C6460.44 879.1 6425.04 870.1 6395.64 852.1C6366.24 833.5 6343.74 805.9 6328.14 769.3C6313.14 732.1 6305.64 684.7 6305.64 627.1C6305.64 568.9 6312.84 521.5 6327.24 484.9C6341.64 447.7 6363.24 420.1 6392.04 402.1C6421.44 384.1 6458.04 375.1 6501.84 375.1C6546.24 375.1 6586.44 385.6 6622.44 406.6C6659.04 427 6687.84 456.1 6708.84 493.9C6730.44 531.1 6741.24 575.5 6741.24 627.1C6741.24 678.7 6730.44 723.4 6708.84 761.2C6687.84 799 6659.04 828.1 6622.44 848.5C6586.44 868.9 6546.24 879.1 6501.84 879.1ZM6194.94 1045.6V383.2H6357.84V466L6356.94 627.1L6365.94 789.1V1045.6H6194.94ZM6465.84 743.2C6485.04 743.2 6502.14 738.7 6517.14 729.7C6532.74 720.7 6545.04 707.5 6554.04 690.1C6563.64 672.7 6568.44 651.7 6568.44 627.1C6568.44 602.5 6563.64 581.5 6554.04 564.1C6545.04 546.7 6532.74 533.5 6517.14 524.5C6502.14 515.5 6485.04 511 6465.84 511C6446.64 511 6429.24 515.5 6413.64 524.5C6398.64 533.5 6386.34 546.7 6376.74 564.1C6367.74 581.5 6363.24 602.5 6363.24 627.1C6363.24 651.7 6367.74 672.7 6376.74 690.1C6386.34 707.5 6398.64 720.7 6413.64 729.7C6429.24 738.7 6446.64 743.2 6465.84 743.2ZM7065.52 879.1C7012.12 879.1 6964.72 868.3 6923.32 846.7C6881.92 825.1 6849.22 795.4 6825.22 757.6C6801.82 719.2 6790.12 675.4 6790.12 626.2C6790.12 577 6801.82 533.5 6825.22 495.7C6849.22 457.9 6881.92 428.5 6923.32 407.5C6964.72 385.9 7012.12 375.1 7065.52 375.1C7118.92 375.1 7166.32 385.9 7207.72 407.5C7249.72 428.5 7282.42 457.9 7305.82 495.7C7329.22 533.5 7340.92 577 7340.92 626.2C7340.92 675.4 7329.22 719.2 7305.82 757.6C7282.42 795.4 7249.72 825.1 7207.72 846.7C7166.32 868.3 7118.92 879.1 7065.52 879.1ZM7065.52 743.2C7085.32 743.2 7102.72 738.7 7117.72 729.7C7133.32 720.7 7145.62 707.5 7154.62 690.1C7163.62 672.1 7168.12 650.8 7168.12 626.2C7168.12 601.6 7163.62 580.9 7154.62 564.1C7145.62 546.7 7133.32 533.5 7117.72 524.5C7102.72 515.5 7085.32 511 7065.52 511C7046.32 511 7028.92 515.5 7013.32 524.5C6998.32 533.5 6986.02 546.7 6976.42 564.1C6967.42 580.9 6962.92 601.6 6962.92 626.2C6962.92 650.8 6967.42 672.1 6976.42 690.1C6986.02 707.5 6998.32 720.7 7013.32 729.7C7028.92 738.7 7046.32 743.2 7065.52 743.2ZM7597.43 879.1C7556.03 879.1 7515.53 874.3 7475.93 864.7C7436.93 855.1 7405.43 843.1 7381.43 828.7L7432.73 711.7C7455.53 725.5 7482.23 736.6 7512.83 745C7543.43 752.8 7573.43 756.7 7602.83 756.7C7631.63 756.7 7651.43 753.7 7662.23 747.7C7673.63 741.7 7679.33 733.6 7679.33 723.4C7679.33 713.8 7673.93 706.9 7663.13 702.7C7652.93 697.9 7639.13 694.3 7621.73 691.9C7604.93 689.5 7586.33 686.8 7565.93 683.8C7545.53 680.8 7524.83 676.9 7503.83 672.1C7483.43 666.7 7464.53 658.9 7447.13 648.7C7430.33 637.9 7416.83 623.5 7406.63 605.5C7396.43 587.5 7391.33 564.7 7391.33 537.1C7391.33 505.9 7400.33 478.3 7418.33 454.3C7436.93 429.7 7463.93 410.5 7499.33 396.7C7534.73 382.3 7577.93 375.1 7628.93 375.1C7663.13 375.1 7697.63 378.7 7732.43 385.9C7767.83 392.5 7797.53 402.7 7821.53 416.5L7770.23 532.6C7746.23 518.8 7722.23 509.5 7698.23 504.7C7674.23 499.3 7651.43 496.6 7629.83 496.6C7601.03 496.6 7580.63 499.9 7568.63 506.5C7557.23 513.1 7551.53 521.2 7551.53 530.8C7551.53 540.4 7556.63 547.9 7566.83 553.3C7577.03 558.1 7590.53 562 7607.33 565C7624.73 567.4 7643.63 570.1 7664.03 573.1C7684.43 575.5 7704.83 579.4 7725.23 584.8C7746.23 590.2 7765.13 598.3 7781.93 609.1C7799.33 619.3 7813.13 633.4 7823.33 651.4C7833.53 668.8 7838.63 691.3 7838.63 718.9C7838.63 748.9 7829.33 775.9 7810.73 799.9C7792.73 823.9 7765.73 843.1 7729.73 857.5C7694.33 871.9 7650.23 879.1 7597.43 879.1ZM7912.32 871V383.2H8083.32V871H7912.32ZM7997.82 329.2C7966.62 329.2 7941.42 320.5 7922.22 303.1C7903.02 285.7 7893.42 264.1 7893.42 238.3C7893.42 212.5 7903.02 190.9 7922.22 173.5C7941.42 156.1 7966.62 147.4 7997.82 147.4C8029.02 147.4 8054.22 155.8 8073.42 172.6C8092.62 188.8 8102.22 209.8 8102.22 235.6C8102.22 262.6 8092.62 285.1 8073.42 303.1C8054.82 320.5 8029.62 329.2 7997.82 329.2ZM8399.65 879.1C8360.05 879.1 8324.35 871.3 8292.55 855.7C8261.35 840.1 8236.75 815.8 8218.75 782.8C8201.35 749.2 8192.65 706.9 8192.65 655.9V383.2H8363.65V628C8363.65 665.8 8370.55 692.8 8384.35 709C8398.75 725.2 8418.85 733.3 8444.65 733.3C8461.45 733.3 8476.75 729.4 8490.55 721.6C8504.35 713.8 8515.45 701.5 8523.85 684.7C8532.25 667.3 8536.45 645.1 8536.45 618.1V383.2H8707.45V871H8544.55V733.3L8576.05 772C8559.25 808 8534.95 835 8503.15 853C8471.35 870.4 8436.85 879.1 8399.65 879.1ZM8817.6 871V383.2H8980.5V519.1L8948.1 480.4C8966.1 445.6 8990.7 419.5 9021.9 402.1C9053.1 384.1 9087.9 375.1 9126.3 375.1C9170.1 375.1 9208.5 386.5 9241.5 409.3C9275.1 431.5 9297.6 466.3 9309 513.7L9253.2 502C9270.6 462.4 9296.7 431.5 9331.5 409.3C9366.9 386.5 9407.4 375.1 9453 375.1C9490.8 375.1 9524.4 382.9 9553.8 398.5C9583.8 413.5 9607.2 436.9 9624 468.7C9641.4 500.5 9650.1 541.6 9650.1 592V871H9479.1V619.9C9479.1 585.1 9472.5 559.9 9459.3 544.3C9446.1 528.1 9428.1 520 9405.3 520C9389.1 520 9374.4 523.9 9361.2 531.7C9348 539.5 9337.8 551.5 9330.6 567.7C9323.4 583.3 9319.8 603.7 9319.8 628.9V871H9148.8V619.9C9148.8 585.1 9142.2 559.9 9129 544.3C9116.4 528.1 9098.4 520 9075 520C9058.2 520 9043.2 523.9 9030 531.7C9017.4 539.5 9007.2 551.5 8999.4 567.7C8992.2 583.3 8988.6 603.7 8988.6 628.9V871H8817.6Z" fill="white"/>
</svg>
